<svg width="2580" height="1008" viewBox="0 0 2580 1008" fill="none" xmlns="http://www.w3.org/2000/svg">
<rect width="2580" height="1008" fill="white"/>
<g filter="url(#filter0_d_2_3)">
<path d="M779.906 145.625H832.641L901 348.945L969.164 145.625H1021.9L922.289 430H879.516L779.906 145.625ZM749.438 145.625H803.148L813.109 356.367V430H749.438V145.625ZM998.656 145.625H1052.56V430H988.695V356.367L998.656 145.625ZM1087.91 326.484V322.383C1087.91 306.888 1090.13 292.63 1094.55 279.609C1098.98 266.458 1105.49 255.065 1114.09 245.43C1122.68 235.794 1133.23 228.307 1145.73 222.969C1158.23 217.5 1172.55 214.766 1188.7 214.766C1205.1 214.766 1219.55 217.5 1232.05 222.969C1244.68 228.307 1255.3 235.794 1263.89 245.43C1272.48 255.065 1278.99 266.458 1283.42 279.609C1287.85 292.63 1290.06 306.888 1290.06 322.383V326.484C1290.06 341.849 1287.85 356.107 1283.42 369.258C1278.99 382.279 1272.48 393.672 1263.89 403.438C1255.3 413.073 1244.75 420.56 1232.25 425.898C1219.75 431.237 1205.36 433.906 1189.09 433.906C1172.94 433.906 1158.55 431.237 1145.92 425.898C1133.29 420.56 1122.68 413.073 1114.09 403.438C1105.49 393.672 1098.98 382.279 1094.55 369.258C1090.13 356.107 1087.91 341.849 1087.91 326.484ZM1149.05 322.383V326.484C1149.05 334.818 1149.7 342.63 1151 349.922C1152.43 357.214 1154.71 363.594 1157.84 369.062C1160.96 374.531 1165.06 378.828 1170.14 381.953C1175.35 384.948 1181.66 386.445 1189.09 386.445C1196.51 386.445 1202.76 384.948 1207.84 381.953C1212.91 378.828 1217.02 374.531 1220.14 369.062C1223.27 363.594 1225.48 357.214 1226.78 349.922C1228.21 342.63 1228.93 334.818 1228.93 326.484V322.383C1228.93 314.18 1228.21 306.497 1226.78 299.336C1225.48 292.044 1223.27 285.599 1220.14 280C1217.02 274.401 1212.85 270.039 1207.64 266.914C1202.56 263.789 1196.25 262.227 1188.7 262.227C1181.4 262.227 1175.22 263.789 1170.14 266.914C1165.06 270.039 1160.96 274.401 1157.84 280C1154.71 285.599 1152.43 292.044 1151 299.336C1149.7 306.497 1149.05 314.18 1149.05 322.383ZM1326 218.672H1387.33V439.766C1387.33 456.042 1384.27 469.779 1378.15 480.977C1372.03 492.305 1363.17 500.833 1351.59 506.562C1340.13 512.422 1326.39 515.352 1310.38 515.352C1305.17 515.352 1300.22 515.091 1295.53 514.57C1290.84 514.18 1285.83 513.333 1280.49 512.031V465.547C1283.75 466.068 1286.87 466.458 1289.87 466.719C1292.73 467.109 1295.79 467.305 1299.05 467.305C1304.91 467.305 1309.79 466.328 1313.7 464.375C1317.73 462.422 1320.79 459.362 1322.88 455.195C1324.96 451.159 1326 446.016 1326 439.766V218.672ZM1321.31 163.984C1321.31 155.13 1324.44 147.904 1330.69 142.305C1336.94 136.576 1345.21 133.711 1355.49 133.711C1365.65 133.711 1373.85 136.576 1380.1 142.305C1386.35 147.904 1389.48 155.13 1389.48 163.984C1389.48 172.708 1386.35 179.935 1380.1 185.664C1373.85 191.263 1365.65 194.062 1355.49 194.062C1345.21 194.062 1336.94 191.263 1330.69 185.664C1324.44 179.935 1321.31 172.708 1321.31 163.984ZM1540.26 379.609V288.984C1540.26 282.604 1539.28 277.135 1537.33 272.578C1535.38 268.021 1532.32 264.44 1528.15 261.836C1523.98 259.232 1518.58 257.93 1511.94 257.93C1506.34 257.93 1501.46 258.906 1497.29 260.859C1493.25 262.812 1490.13 265.612 1487.91 269.258C1485.83 272.904 1484.79 277.396 1484.79 282.734H1423.85C1423.85 273.229 1426 264.375 1430.3 256.172C1434.59 247.969 1440.71 240.742 1448.66 234.492C1456.73 228.242 1466.36 223.424 1477.56 220.039C1488.76 216.523 1501.33 214.766 1515.26 214.766C1531.79 214.766 1546.51 217.565 1559.4 223.164C1572.42 228.633 1582.71 236.901 1590.26 247.969C1597.81 258.906 1601.59 272.708 1601.59 289.375V377.852C1601.59 390.612 1602.3 400.638 1603.73 407.93C1605.3 415.091 1607.51 421.341 1610.38 426.68V430H1548.85C1545.99 423.88 1543.84 416.328 1542.41 407.344C1540.97 398.229 1540.26 388.984 1540.26 379.609ZM1547.88 301.094L1548.27 334.688H1517.99C1511.22 334.688 1505.36 335.534 1500.41 337.227C1495.6 338.919 1491.69 341.263 1488.7 344.258C1485.7 347.122 1483.49 350.508 1482.05 354.414C1480.75 358.19 1480.1 362.357 1480.1 366.914C1480.1 371.211 1481.14 375.117 1483.23 378.633C1485.31 382.018 1488.17 384.688 1491.82 386.641C1495.47 388.594 1499.7 389.57 1504.52 389.57C1512.46 389.57 1519.23 388.008 1524.83 384.883C1530.56 381.758 1534.98 377.982 1538.11 373.555C1541.23 368.997 1542.8 364.766 1542.8 360.859L1557.45 386.25C1555.1 391.458 1552.24 396.862 1548.85 402.461C1545.47 407.93 1541.17 413.073 1535.96 417.891C1530.75 422.578 1524.44 426.419 1517.02 429.414C1509.72 432.409 1500.93 433.906 1490.65 433.906C1477.37 433.906 1465.32 431.237 1454.52 425.898C1443.71 420.43 1435.05 412.943 1428.54 403.438C1422.16 393.932 1418.97 382.995 1418.97 370.625C1418.97 359.557 1420.99 349.727 1425.02 341.133C1429.06 332.539 1435.11 325.247 1443.19 319.258C1451.39 313.268 1461.68 308.776 1474.05 305.781C1486.42 302.656 1500.87 301.094 1517.41 301.094H1547.88Z" fill="#72969E"/>
</g>
<g filter="url(#filter1_d_2_3)">
<path d="M1222.91 672.688H1286.2C1285.15 692.219 1279.82 709.471 1270.18 724.445C1260.67 739.289 1247.46 750.943 1230.53 759.406C1213.6 767.74 1193.49 771.906 1170.18 771.906C1151.56 771.906 1134.89 768.716 1120.18 762.336C1105.47 755.956 1092.97 746.841 1082.68 734.992C1072.52 723.013 1064.71 708.625 1059.24 691.828C1053.9 674.901 1051.23 655.826 1051.23 634.602V617.219C1051.23 595.995 1054.03 576.919 1059.63 559.992C1065.23 543.065 1073.24 528.612 1083.66 516.633C1094.07 504.654 1106.57 495.474 1121.16 489.094C1135.74 482.714 1152.02 479.523 1169.98 479.523C1194.2 479.523 1214.65 483.885 1231.31 492.609C1247.98 501.333 1260.87 513.312 1269.98 528.547C1279.23 543.781 1284.76 561.164 1286.59 580.695H1223.11C1222.59 569.628 1220.51 560.318 1216.86 552.766C1213.21 545.083 1207.61 539.289 1200.06 535.383C1192.51 531.477 1182.48 529.523 1169.98 529.523C1160.87 529.523 1152.86 531.216 1145.96 534.602C1139.19 537.987 1133.53 543.26 1128.97 550.422C1124.54 557.583 1121.22 566.698 1119.01 577.766C1116.79 588.703 1115.69 601.724 1115.69 616.828V634.602C1115.69 649.576 1116.66 662.531 1118.62 673.469C1120.57 684.406 1123.7 693.456 1127.99 700.617C1132.42 707.779 1138.08 713.117 1144.98 716.633C1151.89 720.148 1160.28 721.906 1170.18 721.906C1181.51 721.906 1190.95 720.148 1198.5 716.633C1206.05 712.987 1211.85 707.518 1215.88 700.227C1219.92 692.935 1222.26 683.755 1222.91 672.688ZM1418.03 771.906C1401.23 771.906 1386.2 769.237 1372.91 763.898C1359.63 758.56 1348.37 751.203 1339.12 741.828C1330.01 732.323 1323.04 721.385 1318.23 709.016C1313.41 696.646 1311 683.43 1311 669.367V661.945C1311 646.19 1313.21 631.672 1317.64 618.391C1322.07 605.109 1328.51 593.586 1336.98 583.82C1345.57 573.924 1356.12 566.307 1368.62 560.969C1381.12 555.5 1395.38 552.766 1411.39 552.766C1426.36 552.766 1439.71 555.24 1451.43 560.188C1463.15 565.005 1473.04 571.971 1481.12 581.086C1489.19 590.07 1495.31 600.943 1499.48 613.703C1503.77 626.333 1505.92 640.526 1505.92 656.281V681.281H1335.61V642.023H1446.16V637.336C1446.16 629.914 1444.79 623.404 1442.05 617.805C1439.45 612.206 1435.54 607.909 1430.34 604.914C1425.26 601.789 1418.81 600.227 1411 600.227C1403.58 600.227 1397.39 601.789 1392.45 604.914C1387.5 608.039 1383.53 612.466 1380.53 618.195C1377.67 623.794 1375.58 630.37 1374.28 637.922C1372.98 645.344 1372.33 653.352 1372.33 661.945V669.367C1372.33 677.57 1373.43 685.057 1375.65 691.828C1377.86 698.599 1381.12 704.393 1385.41 709.211C1389.71 714.029 1394.92 717.805 1401.04 720.539C1407.16 723.273 1414.12 724.641 1421.94 724.641C1431.57 724.641 1440.75 722.818 1449.48 719.172C1458.2 715.396 1465.75 709.536 1472.13 701.594L1500.65 734.211C1496.35 740.461 1490.3 746.516 1482.48 752.375C1474.8 758.104 1465.56 762.792 1454.75 766.438C1443.94 770.083 1431.7 771.906 1418.03 771.906ZM1648.11 709.211C1648.11 705.305 1646.87 701.854 1644.4 698.859C1642.05 695.865 1637.76 693.13 1631.51 690.656C1625.39 688.182 1616.73 685.708 1605.53 683.234C1594.98 681.021 1585.15 678.156 1576.04 674.641C1566.92 670.995 1558.98 666.633 1552.21 661.555C1545.44 656.346 1540.17 650.227 1536.39 643.195C1532.61 636.034 1530.73 627.896 1530.73 618.781C1530.73 609.927 1532.61 601.529 1536.39 593.586C1540.3 585.643 1545.9 578.612 1553.19 572.492C1560.61 566.372 1569.59 561.555 1580.14 558.039C1590.82 554.523 1602.93 552.766 1616.47 552.766C1635.09 552.766 1651.17 555.695 1664.71 561.555C1678.25 567.284 1688.67 575.357 1695.96 585.773C1703.25 596.06 1706.9 607.844 1706.9 621.125H1645.96C1645.96 615.656 1644.92 610.904 1642.84 606.867C1640.75 602.831 1637.56 599.706 1633.27 597.492C1628.97 595.148 1623.3 593.977 1616.27 593.977C1610.8 593.977 1605.99 594.953 1601.82 596.906C1597.78 598.729 1594.59 601.268 1592.25 604.523C1590.04 607.779 1588.93 611.555 1588.93 615.852C1588.93 618.846 1589.58 621.581 1590.88 624.055C1592.32 626.398 1594.46 628.612 1597.33 630.695C1600.32 632.648 1604.16 634.406 1608.85 635.969C1613.67 637.531 1619.53 639.029 1626.43 640.461C1641.14 643.195 1654.55 647.036 1666.66 651.984C1678.9 656.932 1688.67 663.768 1695.96 672.492C1703.38 681.216 1707.09 692.74 1707.09 707.062C1707.09 716.438 1704.95 725.031 1700.65 732.844C1696.48 740.656 1690.43 747.492 1682.48 753.352C1674.54 759.211 1665.04 763.768 1653.97 767.023C1642.9 770.279 1630.4 771.906 1616.47 771.906C1596.55 771.906 1579.68 768.326 1565.88 761.164C1552.08 754.003 1541.66 745.018 1534.63 734.211C1527.73 723.273 1524.28 712.076 1524.28 700.617H1581.51C1581.77 707.648 1583.53 713.378 1586.78 717.805C1590.17 722.232 1594.53 725.487 1599.87 727.57C1605.21 729.523 1611.2 730.5 1617.84 730.5C1624.48 730.5 1630.01 729.589 1634.44 727.766C1638.86 725.943 1642.25 723.469 1644.59 720.344C1646.94 717.089 1648.11 713.378 1648.11 709.211ZM1848.5 556.672V599.445H1723.11V556.672H1848.5ZM1751.82 504.328H1812.95V701.789C1812.95 707.648 1813.67 712.141 1815.1 715.266C1816.53 718.391 1818.88 720.604 1822.13 721.906C1825.39 723.078 1829.55 723.664 1834.63 723.664C1838.28 723.664 1841.4 723.534 1844.01 723.273C1846.61 723.013 1849.02 722.688 1851.23 722.297V766.438C1846.03 768.13 1840.49 769.432 1834.63 770.344C1828.77 771.385 1822.39 771.906 1815.49 771.906C1802.34 771.906 1790.95 769.758 1781.31 765.461C1771.81 761.164 1764.52 754.393 1759.44 745.148C1754.36 735.773 1751.82 723.599 1751.82 708.625V504.328ZM1989.71 717.609V626.984C1989.71 620.604 1988.73 615.135 1986.78 610.578C1984.83 606.021 1981.77 602.44 1977.6 599.836C1973.43 597.232 1968.03 595.93 1961.39 595.93C1955.79 595.93 1950.91 596.906 1946.74 598.859C1942.71 600.812 1939.58 603.612 1937.37 607.258C1935.28 610.904 1934.24 615.396 1934.24 620.734H1873.3C1873.3 611.229 1875.45 602.375 1879.75 594.172C1884.05 585.969 1890.17 578.742 1898.11 572.492C1906.18 566.242 1915.82 561.424 1927.02 558.039C1938.21 554.523 1950.78 552.766 1964.71 552.766C1981.25 552.766 1995.96 555.565 2008.85 561.164C2021.87 566.633 2032.16 574.901 2039.71 585.969C2047.26 596.906 2051.04 610.708 2051.04 627.375V715.852C2051.04 728.612 2051.76 738.638 2053.19 745.93C2054.75 753.091 2056.96 759.341 2059.83 764.68V768H1998.3C1995.44 761.88 1993.29 754.328 1991.86 745.344C1990.43 736.229 1989.71 726.984 1989.71 717.609ZM1997.33 639.094L1997.72 672.688H1967.45C1960.67 672.688 1954.82 673.534 1949.87 675.227C1945.05 676.919 1941.14 679.263 1938.15 682.258C1935.15 685.122 1932.94 688.508 1931.51 692.414C1930.21 696.19 1929.55 700.357 1929.55 704.914C1929.55 709.211 1930.6 713.117 1932.68 716.633C1934.76 720.018 1937.63 722.688 1941.27 724.641C1944.92 726.594 1949.15 727.57 1953.97 727.57C1961.91 727.57 1968.68 726.008 1974.28 722.883C1980.01 719.758 1984.44 715.982 1987.56 711.555C1990.69 706.997 1992.25 702.766 1992.25 698.859L2006.9 724.25C2004.55 729.458 2001.69 734.862 1998.3 740.461C1994.92 745.93 1990.62 751.073 1985.41 755.891C1980.21 760.578 1973.89 764.419 1966.47 767.414C1959.18 770.409 1950.39 771.906 1940.1 771.906C1926.82 771.906 1914.78 769.237 1903.97 763.898C1893.16 758.43 1884.5 750.943 1877.99 741.438C1871.61 731.932 1868.42 720.995 1868.42 708.625C1868.42 697.557 1870.44 687.727 1874.48 679.133C1878.51 670.539 1884.57 663.247 1892.64 657.258C1900.84 651.268 1911.13 646.776 1923.5 643.781C1935.87 640.656 1950.32 639.094 1966.86 639.094H1997.33Z" fill="#C2DFE8"/>
</g>
<defs>
<filter id="filter0_d_2_3" x="745.438" y="133.711" width="868.938" height="389.641" filterUnits="userSpaceOnUse" color-interpolation-filters="sRGB">
<feFlood flood-opacity="0" result="BackgroundImageFix"/>
<feColorMatrix in="SourceAlpha" type="matrix" values="0 0 0 0 0 0 0 0 0 0 0 0 0 0 0 0 0 0 127 0" result="hardAlpha"/>
<feOffset dy="4"/>
<feGaussianBlur stdDeviation="2"/>
<feComposite in2="hardAlpha" operator="out"/>
<feColorMatrix type="matrix" values="0 0 0 0 0 0 0 0 0 0 0 0 0 0 0 0 0 0 0.25 0"/>
<feBlend mode="normal" in2="BackgroundImageFix" result="effect1_dropShadow_2_3"/>
<feBlend mode="normal" in="SourceGraphic" in2="effect1_dropShadow_2_3" result="shape"/>
</filter>
<filter id="filter1_d_2_3" x="1047.23" y="479.523" width="1016.59" height="300.383" filterUnits="userSpaceOnUse" color-interpolation-filters="sRGB">
<feFlood flood-opacity="0" result="BackgroundImageFix"/>
<feColorMatrix in="SourceAlpha" type="matrix" values="0 0 0 0 0 0 0 0 0 0 0 0 0 0 0 0 0 0 127 0" result="hardAlpha"/>
<feOffset dy="4"/>
<feGaussianBlur stdDeviation="2"/>
<feComposite in2="hardAlpha" operator="out"/>
<feColorMatrix type="matrix" values="0 0 0 0 0 0 0 0 0 0 0 0 0 0 0 0 0 0 0.25 0"/>
<feBlend mode="normal" in2="BackgroundImageFix" result="effect1_dropShadow_2_3"/>
<feBlend mode="normal" in="SourceGraphic" in2="effect1_dropShadow_2_3" result="shape"/>
</filter>
</defs>
</svg>
